<?xml version="1.0" encoding="UTF-8"?>
<svg width="752pt" height="752pt" version="1.1" viewBox="0 0 752 752" xmlns="http://www.w3.org/2000/svg">
 <g>
  <path d="m552.77 611.63h-321.09c-11.27 0-20.457-9.1875-20.457-20.48v-80.082c0-5.6367 4.5703-10.184 10.184-10.184s10.184 4.5469 10.184 10.184v80.082l321.18 0.09375 0.09375-323.98-105.97-105.94h-215.22l-0.070312 232.39c0 5.6367-4.5703 10.184-10.184 10.184s-10.184-4.5469-10.184-10.184v-232.29c0-11.293 9.1875-20.457 20.457-20.457h219.43c2.6992 0 5.3047 1.0664 7.1992 2.9844l111.93 111.93c1.918 1.918 2.9844 4.5 2.9844 7.1992v328.1c-0.019532 11.27-9.207 20.457-20.477 20.457z"/>
  <path d="m563.04 273.26h-101.65c-11.27 0-20.457-9.1875-20.457-20.457l-0.003906-101.66c0-4.1211 2.4844-7.8359 6.2969-9.4258 3.8125-1.5859 8.168-0.71094 11.105 2.2031l111.93 111.93c2.9141 2.9141 3.7891 7.293 2.2031 11.105-1.5859 3.8164-5.3008 6.3008-9.4219 6.3008zm-101.73-97.512 0.070313 77.121 77.055 0.003906z"/>
  <path d="m463.4 521.27h-262.77c-11.246 0-20.387-9.1406-20.387-20.387v-96.988c0-11.246 9.1406-20.387 20.387-20.387h262.77c11.246 0 20.387 9.1406 20.387 20.387v96.988c0.003906 11.246-9.1367 20.387-20.383 20.387zm-262.77-117.38v96.988h262.79v-96.988z"/>
  <path d="m262.79 434.2c0-1.043 0.1875-2.0117 0.56641-2.9141 0.37891-0.89844 0.89844-1.6797 1.5391-2.3672 0.64062-0.66406 1.375-1.1836 2.2266-1.5859 0.85156-0.37891 1.7773-0.56641 2.7695-0.56641 0.99609 0 1.918 0.1875 2.7695 0.56641 0.85156 0.37891 1.6094 0.92187 2.25 1.5859 0.66406 0.6875 1.1602 1.4688 1.5391 2.3672 0.37891 0.89844 0.54297 1.8711 0.54297 2.9141v40.516c0 1.043-0.1875 2.0117-0.54297 2.9141-0.35547 0.89844-0.875 1.6797-1.5391 2.3672-0.64062 0.6875-1.3984 1.207-2.25 1.5859-0.85156 0.37891-1.7773 0.56641-2.7695 0.56641-0.99609 0-1.918-0.1875-2.7695-0.56641-0.85156-0.37891-1.5859-0.89844-2.2266-1.5859-0.64063-0.66406-1.1367-1.4453-1.5156-2.3672-0.37891-0.89844-0.54297-1.8711-0.54297-2.9141l-0.046875-15.746h-19.633v15.746c0 1.043-0.1875 2.0117-0.54297 2.9141-0.37891 0.89844-0.875 1.6797-1.5156 2.3672-0.64062 0.6875-1.3984 1.207-2.25 1.5859-0.85156 0.37891-1.7773 0.56641-2.7695 0.56641-0.99609 0-1.918-0.1875-2.7695-0.56641-0.85156-0.37891-1.5859-0.89844-2.2266-1.5859-0.64063-0.66406-1.1367-1.4453-1.4922-2.3672-0.37891-0.89844-0.54297-1.8711-0.54297-2.9141v-40.516c0-1.043 0.1875-2.0117 0.54297-2.9141 0.37891-0.89844 0.875-1.6797 1.4922-2.3672 0.64062-0.66406 1.375-1.1836 2.2266-1.5859 0.85156-0.37891 1.7773-0.56641 2.7695-0.56641 0.99609 0 1.918 0.1875 2.7695 0.56641 0.85156 0.37891 1.6094 0.92187 2.25 1.5859 0.64063 0.6875 1.1602 1.4688 1.5156 2.3672 0.37891 0.89844 0.54297 1.8711 0.54297 2.9141v13.922h19.629z"/>
  <path d="m286.35 436.88c-0.73437 0-1.4453-0.14062-2.082-0.40234-0.66406-0.26172-1.2305-0.64062-1.7305-1.0898-0.49609-0.44922-0.875-0.99609-1.1836-1.5859-0.28516-0.61719-0.42578-1.2539-0.42578-1.9414s0.14062-1.3242 0.42578-1.9648c0.28516-0.64062 0.6875-1.1602 1.1836-1.6328 0.49609-0.44922 1.0664-0.80469 1.7305-1.0898 0.66406-0.26172 1.3516-0.40234 2.082-0.40234h34.809c0.73438 0 1.4453 0.11719 2.082 0.40234 0.64062 0.28516 1.2305 0.61719 1.7305 1.0898 0.49609 0.44922 0.875 0.99609 1.1836 1.6328 0.30859 0.64062 0.42578 1.2773 0.42578 1.9648s-0.14062 1.3242-0.42578 1.9414c-0.28516 0.61719-0.6875 1.1367-1.1836 1.5859s-1.0664 0.82812-1.7305 1.0898c-0.66406 0.26172-1.3516 0.40234-2.082 0.40234h-10.207v37.84c0 1.043-0.1875 2.0117-0.54297 2.9141-0.35547 0.89844-0.875 1.6797-1.5391 2.3672-0.64062 0.6875-1.3984 1.207-2.25 1.5859-0.85156 0.37891-1.7773 0.56641-2.7695 0.56641-0.99609 0-1.918-0.1875-2.7695-0.56641-0.85156-0.37891-1.5859-0.89844-2.2266-1.5859-0.64062-0.66406-1.1367-1.4453-1.5156-2.3672-0.37891-0.89844-0.54297-1.8711-0.54297-2.9141v-37.84z"/>
  <path d="m388.1 440.1c-2.2734 5.5898-4.2852 10.586-6.0625 14.941-0.75781 1.8711-1.4922 3.6953-2.2266 5.4922-0.71094 1.7773-1.3516 3.3633-1.918 4.7578-0.56641 1.3984-1.043 2.5352-1.3984 3.3867l-0.49609 1.2539c-0.51953 1.3008-1.0898 2.5352-1.6797 3.6953-0.59375 1.1602-1.2773 2.1797-2.0352 3.0547-0.75781 0.875-1.6328 1.5625-2.582 2.1094-0.94531 0.51953-2.0586 0.78125-3.293 0.78125-1.1367 0-2.1562-0.1875-3.0078-0.59375-0.875-0.40234-1.6562-0.99609-2.3906-1.8008-0.71094-0.80469-1.3984-1.8008-2.0352-3.0078-0.64062-1.207-1.2773-2.6055-1.8945-4.2148l-12.004-29.719v36.348c0 0.75781-0.14062 1.4922-0.44922 2.1797-0.28516 0.6875-0.6875 1.2773-1.207 1.7773-0.49609 0.49609-1.1133 0.875-1.8008 1.1836-0.6875 0.28516-1.3984 0.42578-2.1797 0.42578-0.75781 0-1.4922-0.14062-2.1797-0.42578-0.6875-0.30859-1.2773-0.6875-1.7773-1.1836-0.49609-0.49609-0.89844-1.0898-1.1836-1.7773-0.28516-0.6875-0.42578-1.4219-0.42578-2.1797v-35.188c0-2.2031 0.11719-4.2148 0.33203-6.0391 0.23828-1.8008 0.6875-3.3633 1.3984-4.6172 0.6875-1.2773 1.6797-2.25 2.9375-2.9609 1.2539-0.6875 2.9141-1.043 4.9727-1.043 1.4688 0 2.7695 0.26172 3.8594 0.75781 1.1133 0.51953 2.1328 1.3242 3.0781 2.4609s1.8711 2.6055 2.7695 4.4062c0.89844 1.8008 1.8945 4 2.9609 6.5586l10.184 24.578h0.30859l10.301-24.578c0.89844-2.1797 1.8008-4.168 2.6758-5.918 0.875-1.7539 1.8008-3.2422 2.793-4.4531 0.99609-1.2305 2.0586-2.1562 3.2422-2.8164 1.1602-0.66406 2.5117-0.99609 4-0.99609 1.6328 0 3.0312 0.23828 4.2383 0.73438 1.207 0.47266 2.2031 1.2539 2.9844 2.3203 0.78125 1.0664 1.3516 2.4375 1.7305 4.1445 0.37891 1.7031 0.56641 3.7188 0.56641 6.1094v36.559c0 0.75781-0.14062 1.4922-0.42578 2.1797s-0.6875 1.2773-1.207 1.7773c-0.51953 0.49609-1.1133 0.875-1.8008 1.1836-0.6875 0.28516-1.4219 0.42578-2.1797 0.42578s-1.4922-0.14062-2.1797-0.42578c-0.6875-0.30859-1.2773-0.6875-1.7773-1.1836-0.49609-0.49609-0.89844-1.0898-1.1836-1.7773s-0.42578-1.4219-0.42578-2.1797l0.003906-36.504z"/>
  <path d="m444.7 472.02c0.6875 0 1.3516 0.11719 1.9648 0.40234 0.61719 0.26172 1.1602 0.61719 1.6094 1.0898 0.44922 0.44922 0.82812 0.99609 1.0898 1.6328 0.26172 0.61719 0.40234 1.2773 0.40234 1.9648s-0.14062 1.3516-0.40234 1.9648c-0.26172 0.61719-0.61719 1.1602-1.0898 1.6094-0.44922 0.44922-0.99609 0.82812-1.6094 1.0898-0.61719 0.26172-1.2773 0.40234-1.9648 0.40234h-26.117c-1.375 0-2.5117-0.30859-3.4336-0.89844-0.92188-0.59375-1.6562-1.375-2.2031-2.3672-0.54297-0.97266-0.92188-2.082-1.1367-3.3398-0.21484-1.2539-0.33203-2.5117-0.33203-3.8125v-37.531c0-1.043 0.1875-2.0117 0.54297-2.9141 0.37891-0.89844 0.875-1.6797 1.5156-2.3672 0.64062-0.66406 1.375-1.1836 2.2266-1.5859 0.85156-0.37891 1.7773-0.56641 2.7695-0.56641 0.99609 0 1.918 0.1875 2.7695 0.56641s1.5859 0.92188 2.25 1.5859c0.64062 0.6875 1.1602 1.4688 1.5156 2.3672 0.37891 0.89844 0.54297 1.8711 0.54297 2.9141l0.046875 37.816h19.043z"/>
 </g>
</svg>
