<?xml version="1.0" encoding="UTF-8"?>
<svg width="752pt" height="752pt" version="1.1" viewBox="0 0 752 752" xmlns="http://www.w3.org/2000/svg">
 <g>
  <path d="m343.41 153.8-18.754-10.812-8.0625 5.3086 148.48 85.758c1.9844 1.1523 3.2031 3.2734 3.1992 5.5664v352.05l27.07 15.551v-365.74l-151.55-87.484z"/>
  <path d="m281.58 217.93c-0.125-0.19531 0-0.70703 0-1.5391v-65.34l-54.332 35.773 52.734 30.465c0.49219 0.30469 1.0312 0.51953 1.5977 0.64063z"/>
  <path d="m363.12 142.99-11.969 7.8711 148.99 86.012c0.97656 0.57031 1.5859 1.6172 1.5977 2.75v349.17l32 18.43v-365.74z"/>
  <path d="m294.38 216.39c0.32813 5.1055-2.1484 9.9883-6.4648 12.738-0.97656 0.5625-2.0312 0.97266-3.1328 1.2148-0.35547 0.10156-0.72266 0.16406-1.0898 0.19141-0.61328 0.097656-1.2344 0.16016-1.8555 0.19141-0.12891 0-0.25781-0.0625-0.38281-0.0625-0.88672-0.039062-1.7656-0.16797-2.625-0.38672-0.42969-0.03125-0.85938-0.09375-1.2812-0.19141-1.375-0.4375-2.707-1.0195-3.9648-1.7266l-52.098-30.078v268.34l233.98 135.1v-358.45l-161.08-92.988zm-62.203 31.68c1.6953-2.5391 4.9492-3.5273 7.7773-2.3633 2.8242 1.1602 4.4375 4.1562 3.8516 7.1562-0.58203 3-3.1992 5.1719-6.2539 5.1914-1.2539-0.015626-2.4766-0.39453-3.5195-1.0898h-0.066406c-2.9258-1.9766-3.7227-5.9375-1.7891-8.8945zm0 25.727c1.2617-1.918 3.457-3.0156 5.75-2.875 2.2969 0.14453 4.3398 1.5 5.3594 3.5625 1.0195 2.0586 0.85547 4.5078-0.42187 6.418-1.1758 1.7891-3.1719 2.8711-5.3125 2.8789-1.2578 0.015625-2.4922-0.36719-3.5195-1.0898h-0.066406c-2.9258-1.9766-3.7227-5.9375-1.7891-8.8945zm0 25.727c1.2656-1.9062 3.457-2.9961 5.7461-2.8516 2.2891 0.14453 4.3242 1.5 5.3438 3.5508 1.0195 2.0547 0.86328 4.4961-0.40234 6.4062-1.1758 1.7891-3.1719 2.8711-5.3125 2.8789-1.2578 0.015626-2.4922-0.36719-3.5195-1.0859h-0.066406c-2.9258-1.9805-3.7227-5.9414-1.7891-8.8984zm10.941 161.08c-1.1094 2.043-3.2422 3.3203-5.5664 3.3281-1.0703-0.003906-2.125-0.26562-3.0742-0.76953l-0.0625-0.0625c-2.2656-1.2539-3.5508-3.75-3.2578-6.3242 0.29297-2.5742 2.1055-4.7148 4.5977-5.4297 2.4883-0.71484 5.1641 0.14062 6.7734 2.168 1.6133 2.0273 1.8438 4.8242 0.58984 7.0898zm0-25.727c-1.1094 2.043-3.2422 3.3203-5.5664 3.3281-1.082 0.003907-2.1445-0.28516-3.0742-0.83203h-0.0625c-2.2656-1.2539-3.5508-3.75-3.2578-6.3242 0.29297-2.5742 2.1055-4.7148 4.5977-5.4297 2.4883-0.71484 5.1641 0.14062 6.7734 2.168 1.6133 2.0273 1.8438 4.8242 0.58984 7.0898zm0-25.727c-1.1094 2.043-3.2422 3.3203-5.5664 3.3281-1.082 0.003906-2.1406-0.28516-3.0742-0.83203h-0.0625c-2.2656-1.2539-3.5508-3.7539-3.2578-6.3242 0.29297-2.5742 2.1055-4.7148 4.5977-5.4297 2.4883-0.71484 5.1641 0.14062 6.7734 2.168 1.6133 2.0273 1.8438 4.8242 0.58984 7.0898zm0-25.727c-1.1094 2.043-3.2422 3.3203-5.5664 3.3281-1.082 0.003906-2.1445-0.28516-3.0742-0.83203h-0.0625c-2.2656-1.2578-3.5508-3.7539-3.2578-6.3242 0.29297-2.5742 2.1055-4.7188 4.5977-5.4297 2.4883-0.71484 5.1641 0.14062 6.7734 2.168 1.6133 2.0273 1.8438 4.8242 0.58984 7.0898zm0-25.727c-1.1094 2.043-3.2422 3.3203-5.5664 3.3281-1.0781-0.027344-2.1289-0.3125-3.0742-0.83203l-0.0625-0.066406c-1.9961-1.1055-3.25-3.1914-3.2891-5.4727-0.035156-2.2852 1.1484-4.4102 3.1094-5.5781 1.9609-1.1719 4.3984-1.2031 6.3867-0.082031 1.4844 0.82031 2.582 2.1992 3.0508 3.832s0.26953 3.3867-0.55469 4.8711zm0-25.727c-1.1133 2.0273-3.2539 3.2812-5.5664 3.2617-1.0703-0.003906-2.125-0.26562-3.0742-0.76562l-0.0625-0.066406c-2.0078-1.1055-3.2734-3.1992-3.3164-5.4922-0.042968-2.2891 1.1445-4.4297 3.1094-5.6094 1.9688-1.1758 4.4141-1.2148 6.4141-0.097656 3.0977 1.7422 4.2109 5.6562 2.4961 8.7695zm190.97-44.543c0.92578-1.4219 2.3789-2.4102 4.0391-2.7461 1.6602-0.33594 3.3867 0.007812 4.793 0.95312 1.9258 1.25 3.0391 3.4375 2.9062 5.7305-0.12891 2.293-1.4766 4.3438-3.5352 5.3672-2.0547 1.0234-4.5039 0.86719-6.4102-0.41016v-0.0625c-1.4219-0.92578-2.4102-2.3828-2.7461-4.043-0.33594-1.6602 0.007812-3.3867 0.95312-4.7891zm-0.25781 26.176c1.5234-2.7148 4.7773-3.9414 7.7109-2.9062 2.9336 1.0312 4.7031 4.0234 4.1875 7.0938-0.51172 3.0664-3.1523 5.3242-6.2656 5.3477-1.1016 0.003906-2.1836-0.28516-3.1367-0.83203h-0.0625c-3.0742-1.7344-4.1602-5.6289-2.4336-8.7031zm0 25.727c1.5234-2.7148 4.7773-3.9414 7.7109-2.9062 2.9336 1.0312 4.7031 4.0234 4.1875 7.0938-0.51172 3.0664-3.1523 5.3242-6.2656 5.3477-1.1016 0.003906-2.1836-0.28125-3.1367-0.83203h-0.0625c-3.0742-1.7344-4.1602-5.6289-2.4336-8.7031zm0 25.727c0.82031-1.4883 2.1992-2.5898 3.8359-3.0586 1.6328-0.46875 3.3867-0.26562 4.8711 0.5625 2.5586 1.4102 3.8438 4.3711 3.1211 7.2031-0.72266 2.8359-3.2695 4.8203-6.1953 4.8281-1.0898-0.003906-2.168-0.26562-3.1367-0.76953l-0.0625-0.0625c-3.0742-1.7344-4.1602-5.6289-2.4336-8.7031zm0 25.727c0.82031-1.4883 2.1992-2.5898 3.8359-3.0586 1.6328-0.46875 3.3867-0.26562 4.8711 0.5625 3.0938 1.7422 4.207 5.6562 2.4922 8.7656-1.1133 2.0312-3.25 3.2852-5.5664 3.2656-1.0898-0.003906-2.168-0.26562-3.1367-0.76953l-0.0625-0.0625c-1.4805-0.82812-2.5664-2.2148-3.0234-3.8477-0.45703-1.6328-0.24219-3.3789 0.58984-4.8555zm0 25.727c1.543-2.7031 4.8008-3.9102 7.7344-2.8633 2.9297 1.0469 4.6875 4.043 4.1719 7.1094-0.51953 3.0703-3.1602 5.3242-6.2734 5.3555-1.0938-0.027343-2.1719-0.3125-3.1367-0.83203l-0.0625-0.066406c-1.4805-0.82812-2.5703-2.2109-3.0273-3.8438-0.45703-1.6367-0.24219-3.3828 0.59375-4.8594zm0 25.793c0.8125-1.5 2.1914-2.6133 3.8281-3.082 1.6367-0.46875 3.3945-0.25781 4.8789 0.58594 2.543 1.418 3.8086 4.3711 3.0898 7.1953-0.72266 2.8242-3.25 4.8086-6.1641 4.8359-1.1016 0.003906-2.1836-0.28516-3.1367-0.83203h-0.0625c-3.0742-1.7344-4.1602-5.6289-2.4336-8.7031zm0 25.727c1.5234-2.7148 4.7773-3.9414 7.7109-2.9062 2.9336 1.0312 4.7031 4.0234 4.1875 7.0938-0.51172 3.0664-3.1523 5.3242-6.2656 5.3477-1.1016 0.003906-2.1836-0.28516-3.1367-0.83203h-0.0625c-3.0742-1.7344-4.1602-5.6289-2.4336-8.7031zm0 25.727c1.5234-2.7148 4.7773-3.9414 7.7109-2.9062 2.9336 1.0312 4.7031 4.0234 4.1875 7.0938-0.51172 3.0664-3.1523 5.3242-6.2656 5.3477-1.1016 0.003906-2.1836-0.28125-3.1367-0.83203h-0.0625c-3.0742-1.7344-4.1602-5.6289-2.4336-8.7031zm0 25.727c1.5234-2.7148 4.7773-3.9414 7.7109-2.9062 2.9336 1.0312 4.7031 4.0234 4.1914 7.0938-0.51562 3.0664-3.1562 5.3242-6.2695 5.3477-1.0898-0.003906-2.168-0.26562-3.1367-0.76953l-0.0625-0.0625c-3.0742-1.7344-4.1602-5.6289-2.4336-8.7031zm0 25.727c0.82031-1.4883 2.1992-2.5898 3.8359-3.0586 1.6328-0.46875 3.3867-0.26562 4.8711 0.5625 3.0938 1.7422 4.207 5.6562 2.4922 8.7656-1.1133 2.0312-3.25 3.2852-5.5664 3.2656-1.0898-0.003906-2.168-0.26562-3.1367-0.76953l-0.0625-0.0625c-3.0742-1.7344-4.1602-5.6289-2.4336-8.7031zm0 25.727c0.81641-1.4922 2.2031-2.5938 3.8398-3.0508 1.6406-0.45703 3.3945-0.23438 4.8672 0.61719 1.4883 0.82031 2.5859 2.2031 3.0547 3.8359 0.46875 1.6328 0.26562 3.3867-0.5625 4.8711-1.1133 2.0273-3.25 3.2812-5.5664 3.2617-1.0898-0.003906-2.168-0.26562-3.1367-0.76953l-0.0625-0.0625c-1.4766-0.82812-2.5664-2.2148-3.0234-3.8477-0.45313-1.6328-0.24219-3.3789 0.58984-4.8555zm-96.5-155.55c6.1602-3.125 13.5-2.8164 19.379 0.80859v-14.957c0-3.5352 2.8672-6.3984 6.4023-6.3984 3.5352 0 6.3984 2.8633 6.3984 6.3984v45.516c0 3.5352-2.8633 6.4023-6.3984 6.4023-3.5352 0-6.4023-2.8672-6.4023-6.4023v-15.816l-5.3047-3.0586c-2.1758-1.6914-5.0391-2.2148-7.6758-1.4062-1.9727 1.8281-2.9297 4.5-2.5625 7.1641 0.75781 11.633 6.9141 22.242 16.637 28.672l8.5078 4.9062c3.0586 1.7695 4.1055 5.6836 2.3398 8.7422-1.7656 3.0625-5.6797 4.1133-8.7383 2.3477l-8.5078-4.9062c-13.66-8.7461-22.242-23.562-23.035-39.762-0.53906-7.2578 2.8906-14.238 8.9609-18.25zm-31.637-43.605c0-3.5312 2.8672-6.3984 6.4023-6.3984 3.5312 0 6.3984 2.8672 6.3984 6.3984v71.523c0 3.5352-2.8672 6.3984-6.3984 6.3984-3.5352 0-6.4023-2.8633-6.4023-6.3984z"/>
 </g>
</svg>
