<?xml version="1.0" encoding="UTF-8"?>
<svg width="752pt" height="752pt" version="1.1" viewBox="0 0 752 752" xmlns="http://www.w3.org/2000/svg">
 <g>
  <path d="m583.19 198.41h-414.38c-4.0859 0-7.3984 3.3125-7.3984 7.3984v310.79c0 1.9609 0.78125 3.8438 2.168 5.2305s3.2695 2.168 5.2305 2.168h162.79v51.797h-55.496v14.801h199.79v-14.801h-55.5v-51.797h162.79c1.9648 0 3.8477-0.78125 5.2344-2.168s2.168-3.2695 2.168-5.2305v-310.79c0-1.9609-0.78125-3.8438-2.168-5.2344-1.3867-1.3867-3.2695-2.1641-5.2344-2.1641zm-406.98 14.797h399.58v214.59h-399.58zm229.39 362.59h-59.199v-51.797h59.199zm170.19-66.598h-399.58v-66.598h399.58z"/>
  <path d="m390.8 472.2c0 8.1719-6.625 14.797-14.801 14.797-8.1719 0-14.797-6.625-14.797-14.797 0-8.1758 6.625-14.801 14.797-14.801 8.1758 0 14.801 6.625 14.801 14.801"/>
  <path d="m427.8 309.4h-7.4023v-29.598c0-15.863-8.4609-30.52-22.199-38.449-13.734-7.9297-30.66-7.9297-44.398 0-13.734 7.9297-22.199 22.586-22.199 38.449v29.598h-7.3984c-4.0859 0-7.3984 3.3164-7.3984 7.4023v81.395c0 1.9648 0.77734 3.8477 2.168 5.2344 1.3867 1.3867 3.2695 2.168 5.2305 2.168h103.6c1.9609 0 3.8438-0.78125 5.2305-2.168 1.3867-1.3867 2.168-3.2695 2.168-5.2344v-81.395c0-1.9648-0.78125-3.8438-2.168-5.2344-1.3867-1.3867-3.2695-2.168-5.2305-2.168zm-81.398-29.598c0-10.574 5.6406-20.344 14.801-25.633 9.1562-5.2891 20.441-5.2891 29.598 0s14.801 15.059 14.801 25.633v29.598h-59.199zm73.996 111h-88.797v-66.598h88.797z"/>
  <path d="m368.6 346.4h14.801v22.199h-14.801z"/>
  <path d="m295.86 376h7.3984v14.801h-7.3984z"/>
  <path d="m271.66 376h12.062v14.801h-12.062z"/>
  <path d="m247.47 376h12.062v14.801h-12.062z"/>
  <path d="m220.61 383.4c0 1.9609 0.77734 3.8438 2.1641 5.2305 1.3906 1.3867 3.2695 2.168 5.2344 2.168h7.3984v-14.801h-14.797z"/>
  <path d="m220.61 280.84h14.801v15.836h-14.801z"/>
  <path d="m220.61 344.26h14.801v15.836h-14.801z"/>
  <path d="m220.61 312.59h14.801v15.836h-14.801z"/>
  <path d="m220.61 257.61v7.3984h14.801l-0.003906-14.797h-7.3984c-4.0859 0-7.3984 3.3125-7.3984 7.3984z"/>
  <path d="m279.07 250.21h14.578v14.801h-14.578z"/>
  <path d="m249.98 250.21h14.578v14.801h-14.578z"/>
  <path d="m308.14 250.21h7.3984v14.801h-7.3984z"/>
  <path d="m436.46 250.21h7.3984v14.801h-7.3984z"/>
  <path d="m487.52 250.21h14.578v14.801h-14.578z"/>
  <path d="m458.36 250.21h14.578v14.801h-14.578z"/>
  <path d="m524 250.21h-7.3984v14.801h14.801l-0.003907-7.4023c0-1.9609-0.77734-3.8438-2.168-5.2305-1.3867-1.3906-3.2695-2.168-5.2305-2.168z"/>
  <path d="m516.6 280.84h14.801v15.836h-14.801z"/>
  <path d="m516.6 344.26h14.801v15.836h-14.801z"/>
  <path d="m516.6 312.59h14.801v15.836h-14.801z"/>
  <path d="m516.6 390.8h7.3984c1.9609 0 3.8438-0.78125 5.2305-2.168 1.3906-1.3867 2.168-3.2695 2.168-5.2305v-7.4023h-14.797z"/>
  <path d="m467.76 376h12.211v14.801h-12.211z"/>
  <path d="m492.18 376h12.211v14.801h-12.211z"/>
  <path d="m448.15 376h7.3984v14.801h-7.3984z"/>
 </g>
</svg>
